<svg width="104" height="134" viewBox="0 0 104 134" fill="none" xmlns="http://www.w3.org/2000/svg">
<path d="M85.3246 0.535551C84.5158 0.35626 83.7148 0.866574 83.5356 1.67537L80.6139 14.8554C80.4346 15.6642 80.9449 16.4652 81.7537 16.6445C82.5625 16.8238 83.3635 16.3135 83.5428 15.5047L86.1398 3.78909L97.8554 6.38614C98.6642 6.56544 99.4652 6.05512 99.6445 5.24632C99.8238 4.43753 99.3135 3.63653 98.5047 3.45724L85.3246 0.535551ZM0.749596 131.479C48.4815 139.561 80.0737 122.902 94.5709 95.9608C109.003 69.14 106.246 32.5563 86.2651 1.19403L83.7349 2.80598C103.254 33.4437 105.747 68.86 91.9291 94.5392C78.1763 120.098 48.0185 136.439 1.2504 128.521L0.749596 131.479Z" fill="#616161"/>
</svg>
