<svg width="1440" height="2848" viewBox="0 0 1440 2848" fill="none" xmlns="http://www.w3.org/2000/svg">
<g clip-path="url(#clip0_22_3)">
<path d="M3.76954e-05 1024H1440V1424H3.76954e-05C1.19002e-05 1217 -3.23651e-05 1220 3.76954e-05 1024Z" fill="url(#paint0_linear_22_3)"/>
<path d="M1440 2445H0V2848H1440V2445Z" fill="white" fill-opacity="0.01"/>
<path d="M579.21 1022.08C579.21 1022.08 955.014 1025.17 939.5 1023.5C935.067 1023.02 1199.13 1027.6 812.119 1021.64C425.108 1015.68 468.399 1416.58 654.234 1423.5C840.068 1430.42 703.328 1424.01 698 1424.5C676.896 1426.44 389.793 1423.99 389.793 1423.99C477.874 1290.68 494.814 1250.58 579.21 1022.08Z" fill="white"/>
<path fill-rule="evenodd" clip-rule="evenodd" d="M-2.49984 1396C-76.4533 1626.17 -60.9235 1725.04 -1.67992 1740.02L-2.49984 1396ZM-1.67992 1740.02L0.000274658 2445H1440C1440 2445 1445 1861 1445 1337.5C1443.4 1332.9 1441.73 1328.34 1440 1323.82V1424H389.79C259.831 1608.98 83.6902 1761.6 -1.67992 1740.02ZM654.222 1024H1152.95C987.312 944.042 791.506 936.626 654.222 1024ZM583 2042C555.386 2042 533 2064.39 533 2092V2102C533 2129.61 555.386 2152 583 2152H858C885.614 2152 908 2129.61 908 2102V2092C908 2064.39 885.614 2042 858 2042H583ZM258 1726H1183C1205.09 1726 1223 1743.91 1223 1766V1836C1223 1858.09 1205.09 1876 1183 1876H258C235.909 1876 218 1858.09 218 1836V1766C218 1743.91 235.909 1726 258 1726ZM208 1766C208 1738.39 230.386 1716 258 1716H1183C1210.61 1716 1233 1738.39 1233 1766V1836C1233 1863.61 1210.61 1886 1183 1886H258C230.386 1886 208 1863.61 208 1836V1766Z" fill="white"/>
<path fill-rule="evenodd" clip-rule="evenodd" d="M377.522 526.797C277.425 527.866 151.825 529.208 0 515.632V0H1003.37C1010.94 197.328 898.739 390.349 811.424 540.558C653.364 812.472 576.855 944.091 1440 706.998V1024H578.297C676.774 747.95 703.127 624.116 653.382 569.137C612.798 524.283 521.565 525.258 377.524 526.797H377.522ZM429.413 1424L421.33 1445.37C401.614 1497.48 380.785 1552.54 358.85 1610.71C344.694 1648.25 332.792 1683.31 323.027 1716H1183C1195.58 1716 1207.07 1720.65 1215.86 1728.32C1291.59 1673.12 1367.02 1614.18 1440 1553.34V1424H429.413ZM1207.51 1734.39C1137.23 1785.35 1066.76 1833.04 997.833 1876H289.795C293.608 1833.12 303.481 1783.31 320.084 1726H1183C1192.24 1726 1200.74 1729.13 1207.51 1734.39ZM289.007 1886H981.677C876.12 1950.88 774.531 2004.31 683.18 2041H583C556.584 2041 534.953 2061.49 533.125 2087.44C375.839 2118.12 276.682 2065.99 289.007 1886Z" fill="white"/>
</g>
<defs>
<linearGradient id="paint0_linear_22_3" x1="2529" y1="460.5" x2="398.148" y2="1472.76" gradientUnits="userSpaceOnUse">
<stop stop-color="white" stop-opacity="0.25"/>
<stop offset="1" stop-color="white" stop-opacity="0"/>
</linearGradient>
<clipPath id="clip0_22_3">
<rect width="1440" height="2848" fill="white"/>
</clipPath>
</defs>
</svg>
